#!OML:ASF F:\VICON\USERDATA\INSTALL\rory3\rory3.ASF
:FULLY-SPECIFIED
:DEGREES
1364
root -6.19308 17.5289 -1.01377 11.8781 -42.8913 2.25312
lowerback 13.2384 -0.172207 -1.31252
upperback 3.82511 -0.366084 2.59247
thorax -3.37127 -0.214844 3.51708
lowerneck -19.5177 -3.46296 -10.7258
upperneck 14.6902 -3.06612 7.13464
head 8.02996 -1.35537 3.76335
rclavicle -7.27552e-014 -1.90833e-014
rhumerus -22.0999 -1.61643 -83.3447
rradius 31.3659
rwrist 6.55491
rhand -28.6042 -5.97458
rfingers 7.12502
rthumb -1.96947 -35.9452
lclavicle -7.27552e-014 -1.90833e-014
lhumerus -18.5617 -15.4361 95.237
lradius 43.7137
lwrist 10.2768
lhand -11.5155 32.1636
lfingers 7.12502
lthumb 14.5239 61.6352
rfemur -20.2223 -6.2394 14.696
rtibia 54.5705
rfoot -15.7546 -8.30972
rtoes -7.65559
lfemur -36.3688 2.4611 -25.2555
ltibia 33.9142
lfoot -6.72101 -3.95108
ltoes -8.11315
1365
root -6.23521 17.5246 -0.94777 11.6605 -42.7595 2.23531
lowerback 13.0663 -0.276812 -1.47549
upperback 3.77125 -0.520907 2.62386
thorax -3.32107 -0.290363 3.66483
lowerneck -19.4006 -3.39724 -11.2542
upperneck 14.6385 -2.93317 7.62476
head 7.99591 -1.27555 4.03518
rclavicle -3.57812e-015 3.26007e-014
rhumerus -21.6004 -0.983469 -83.5581
rradius 31.9685
rwrist 4.58815
rhand -29.9746 -7.58602
rfingers 7.12502
rthumb -3.29294 -37.5403
lclavicle -3.57812e-015 3.26007e-014
lhumerus -18.2502 -14.3823 94.8809
lradius 43.8131
lwrist 12.6521
lhand -12.7281 33.0712
lfingers 7.12502
lthumb 13.3553 62.6232
rfemur -20.5506 -6.68808 14.5713
rtibia 55.8617
rfoot -14.371 -8.64155
rtoes -8.03321
lfemur -36.2273 2.09737 -25.1357
ltibia 34.5507
lfoot -7.14127 -3.70852
ltoes -6.82382
1366
root -6.2767 17.5082 -0.885083 11.5288 -42.7828 2.13187
lowerback 12.9148 -0.205087 -1.54975
upperback 3.72035 -0.434866 2.5745
thorax -3.29814 -0.246399 3.63963
lowerneck -19.5014 -3.35771 -11.1712
upperneck 14.6901 -2.88436 7.58035
head 8.02339 -1.25091 4.01338
rclavicle -7.4743e-014 1.66979e-014
rhumerus -21.0055 -1.43108 -83.6774
rradius 32.3716
rwrist 3.39033
rhand -31.291 -8.59372
rfingers 7.12502
rthumb -4.56414 -38.5245
lclavicle -7.4743e-014 1.66979e-014
lhumerus -17.8727 -13.7779 94.5834
lradius 43.9513
lwrist 16.0511
lhand -13.8844 34.1291
lfingers 7.12502
lthumb 12.2406 63.7509
rfemur -21.0103 -6.85578 14.5056
rtibia 57.2354
rfoot -12.9935 -8.96458
rtoes -7.46042
lfemur -36.0957 2.02534 -25.0399
ltibia 35.1451
lfoot -7.58086 -3.56691
ltoes -5.95373
1367
root -6.31809 17.4849 -0.825984 11.4245 -42.7625 2.07464
lowerback 12.7119 -0.214246 -1.76274
upperback 3.64446 -0.46715 2.64497
thorax -3.26187 -0.26067 3.83747
lowerneck -19.5318 -3.27409 -11.3663
upperneck 14.6507 -2.70639 7.56459
head 8.00014 -1.17828 4.06209
rclavicle 6.24184e-014 1.19271e-014
rhumerus -20.2953 -2.07794 -83.6475
rradius 32.6017
rwrist 2.87497
rhand -32.3652 -9.04569
rfingers 7.12502
rthumb -5.60133 -38.9517
lclavicle 6.24184e-014 1.19271e-014
lhumerus -17.3978 -12.6222 94.4023
lradius 44.1107
lwrist 20.2998
lhand -15.2231 35.1993
lfingers 7.12502
lthumb 10.9496 64.8938
rfemur -21.5663 -6.97651 14.4002
rtibia 58.6842
rfoot -11.9594 -8.97663
rtoes -6.11304
lfemur -36.0056 2.00472 -25.0167
ltibia 35.7782
lfoot -8.14042 -3.47585
ltoes -5.85648
1368
root -6.35737 17.4651 -0.763535 11.0967 -42.4991 2.13204
lowerback 12.5565 -0.383722 -1.87589
upperback 3.65026 -0.702001 2.68102
thorax -3.15026 -0.378492 3.97207
lowerneck -19.5422 -3.18778 -11.7383
upperneck 14.5548 -2.51098 7.7369
head 7.95741 -1.08821 4.20586
rclavicle 5.24792e-014 -7.15625e-015
rhumerus -19.5288 -2.25387 -83.8722
rradius 33.0686
rwrist 1.74287
rhand -33.6182 -9.70246
rfingers 7.12502
rthumb -6.81101 -39.5729
lclavicle 5.24792e-014 -7.15625e-015
lhumerus -16.7353 -11.1144 94.1468
lradius 43.9954
lwrist 23.7387
lhand -16.135 35.8695
lfingers 7.12502
lthumb 10.0699 65.6086
rfemur -21.9211 -7.31961 14.2192
rtibia 60.1579
rfoot -11.2251 -8.90888
rtoes -6.41269
lfemur -35.7389 1.76465 -25.047
ltibia 36.4204
lfoot -8.66335 -3.40982
ltoes -5.63168
1369
root -6.39873 17.4494 -0.709499 11.0768 -42.7112 1.94037
lowerback 12.2951 -0.306615 -1.96951
upperback 3.63509 -0.609997 2.64302
thorax -3.03042 -0.334 3.96667
lowerneck -19.674 -3.15485 -11.6775
upperneck 14.5661 -2.44423 7.61592
head 7.97432 -1.06288 4.16298
rclavicle 5.92378e-014 -7.15625e-015
rhumerus -18.9295 -2.17622 -84.3848
rradius 33.9417
rwrist 0.0682602
rhand -35.1282 -10.4967
rfingers 7.12502
rthumb -8.26851 -40.3149
lclavicle 5.92378e-014 -7.15625e-015
lhumerus -15.985 -10.0318 93.8443
lradius 43.6794
lwrist 26.4129
lhand -16.7222 36.732
lfingers 7.12502
lthumb 9.50337 66.4977
rfemur -22.601 -7.22787 14.2132
rtibia 61.6199
rfoot -10.3126 -9.19605
rtoes -6.25227
lfemur -35.6384 1.98142 -24.9488
ltibia 37.0555
lfoot -9.15697 -3.32504
ltoes -5.28217
